<svg width="40" height="40" viewBox="0 0 40 40" fill="none" xmlns="http://www.w3.org/2000/svg">
<path d="M18.86 5L4.63 15.42V24.07L18.86 34.49C18.83 12.26 18.86 23.17 18.86 5Z" fill="#B3B3B3"/>
<path d="M1 26.9198H8.47V12.5598H1V26.9198Z" fill="#B3B3B3"/>
<path d="M28 34.1399C27.6559 34.1407 27.3193 34.0395 27.0328 33.849C26.7462 33.6586 26.5225 33.3874 26.39 33.0699C26.2993 32.8572 26.2514 32.6286 26.249 32.3974C26.2467 32.1661 26.2899 31.9367 26.3763 31.7221C26.4627 31.5076 26.5905 31.3122 26.7524 31.1471C26.9143 30.982 27.1072 30.8504 27.32 30.7599C28.7344 30.1603 30.0184 29.2907 31.1 28.1999C33.3328 25.9541 34.5873 22.9167 34.59 19.7499C34.5793 16.5788 33.3138 13.5408 31.07 11.2999C29.9863 10.2089 28.7031 9.33644 27.29 8.72988C26.8627 8.547 26.5251 8.20251 26.3509 7.7716C26.1766 7.3407 26.1799 6.85837 26.36 6.42988C26.4463 6.21604 26.5746 6.02173 26.7375 5.8585C26.9003 5.69526 27.0943 5.56643 27.308 5.47967C27.5216 5.39291 27.7505 5.35 27.9811 5.35347C28.2116 5.35694 28.4391 5.40673 28.65 5.49988C32.3419 7.07523 35.2782 10.0222 36.84 13.7199C37.6452 15.6177 38.0601 17.6583 38.06 19.7199C38.059 21.7804 37.6477 23.82 36.85 25.7199C36.077 27.5565 34.9526 29.2244 33.54 30.6299C32.1475 32.0638 30.4858 33.209 28.65 33.9999C28.4453 34.0907 28.224 34.1384 28 34.1399Z" fill="#B3B3B3"/>
<path d="M24.69 27.0801C24.3094 27.0796 23.9406 26.9476 23.6462 26.7064C23.3518 26.4652 23.1499 26.1297 23.0746 25.7566C22.9992 25.3835 23.0551 24.9959 23.2329 24.6594C23.4106 24.3229 23.6993 24.0581 24.0499 23.9101C24.8655 23.5635 25.5605 22.9838 26.048 22.2438C26.5354 21.5037 26.7936 20.6362 26.79 19.7501C26.7935 19.149 26.6744 18.5535 26.44 18.0001C26.2031 17.4627 25.8634 16.9769 25.44 16.5701C25.0312 16.1489 24.5458 15.8095 24.01 15.5701C23.6564 15.3727 23.3883 15.0515 23.2574 14.6682C23.1264 14.285 23.1418 13.8669 23.3008 13.4944C23.4597 13.122 23.7508 12.8215 24.118 12.6508C24.4853 12.4801 24.9028 12.4514 25.29 12.5701C26.4625 13.0719 27.495 13.8522 28.2977 14.8433C29.1005 15.8344 29.6493 17.0064 29.8966 18.2577C30.1439 19.5089 30.0822 20.8016 29.7168 22.0235C29.3515 23.2455 28.6934 24.3599 27.7999 25.2701C27.0941 25.9834 26.2548 26.5508 25.3299 26.9401C25.1281 27.0293 24.9106 27.0769 24.69 27.0801Z" fill="#B3B3B3"/>
</svg>
