<svg width="13" height="15" viewBox="0 0 13 15" fill="none" xmlns="http://www.w3.org/2000/svg">
<path d="M7.9017 9.45725C7.9017 9.43093 7.91838 9.40949 7.91838 9.38512V7.7098C7.91142 7.66312 7.90132 7.6169 7.88815 7.5714C8.54145 7.19226 9.07974 6.66267 9.45149 6.03334C9.82325 5.40401 10.016 4.696 10.0114 3.97708C10.0114 1.78034 8.4385 -0.000244141 6.49976 -0.000244141C4.56101 -0.000244141 2.98813 1.77936 2.98813 3.97708C3.00484 4.69861 3.21494 5.40471 3.59918 6.03063C3.98343 6.65656 4.52954 7.18229 5.18746 7.55969C5.1719 7.60882 5.1604 7.65902 5.15306 7.7098V9.38316C5.1558 9.39664 5.15928 9.40999 5.16348 9.42313C2.19283 9.76619 -0.000244141 11.2749 -0.000244141 12.767C-0.000244141 14.4637 2.90891 14.9998 6.49976 14.9998C10.0906 14.9998 12.9998 14.4637 12.9998 12.767C12.9987 11.3129 10.7952 9.84611 7.9017 9.45725Z" fill="#030303"/>
</svg>
